<mxfile host="app.diagrams.net" modified="2023-07-25T14:22:57.035Z" agent="Mozilla/5.0 (Windows NT 10.0; Win64; x64) AppleWebKit/537.36 (KHTML, like Gecko) Chrome/115.0.0.0 Safari/537.36" version="21.6.5" etag="f7JKo7Lb_aj9PsB6rkTf" type="github">
  <diagram name="Page-1" id="cOIe9btKspNqVAJQQtNp">
    <mxGraphModel>
      <root>
        <mxCell id="0" />
        <mxCell id="1" parent="0" />
      </root>
    </mxGraphModel>
  </diagram>
</mxfile>
